<svg xmlns="http://www.w3.org/2000/svg" version="1.1" xmlns:xlink="http://www.w3.org/1999/xlink" width="1000" height="1000"><g clip-path="url(#SvgjsClipPath1127)"><rect width="1000" height="1000" fill="#ffffff"></rect><g transform="matrix(0.9765625,0,0,0.9765625,0,0)"><svg xmlns="http://www.w3.org/2000/svg" style="display:block" viewBox="0 0 2048 2048" width="1024" height="1024" preserveAspectRatio="none"><path fill="#6E77D1" d="M973.496 606.167c56.814-5.973 61.674 44.895 73.564 85.889l30.91 105.524L1202 1224.5c7.04-20.54 13.15-42.36 20.67-62.6 4.7-12.66 17.07-24.1 30.07-28.72a53 53 0 0 1 42.1 2.72 51.18 51.18 0 0 1 25.67 30.8c6.14 19.73-6.63 47.63-13.13 67.24l-25.83 77.77-21.96 65.93c-8.83 26.38-14.51 54.18-46.06 61.92-17.25 4.24-30.2.91-45-7.98-6.21-5.21-13.34-12.33-16.14-20-6.78-18.56-12.37-38.88-17.94-57.82l-33.11-113.71c-40.46-138.15-79.52-278.883-121.685-416.342a3271 3271 0 0 1-21.544 68.399c-8.766 27.307-13.497 56.867-46.198 65.383-37.619 9.798-73.129-24.235-61.875-62.124 4.938-16.626 10.252-33.041 15.627-49.609l29.691-91.465 23.74-73.758c10.991-34.366 13.631-65.754 54.4-74.367"></path><path fill="#6E77D1" d="M855.227 994.371c5.319-.17 12.198.851 17.278 2.413a49.27 49.27 0 0 1 30.271 25.776c11.319 23.37 1.277 43.61-5.965 66.72l-16.088 51.23-28.306 89.17c-5.803 18.22-11.34 39.64-19.422 56.28-10.952 22.56-45.12 31.77-66.941 20.89-8.211-4.09-18.706-11.3-22.142-19.67-23.979-58.42-46.421-121.42-69.485-179.85l-205.432-.08c-23.867-.15-107.394 3.18-124.498-3.02-11.85-4.29-22.303-14-27.56-25.45-6.128-13.34-6.682-29.38-1.269-43.03a48.34 48.34 0 0 1 26.751-27.32c14.392-5.99 58.712-3.77 76.443-3.77l115.426.07 113.019-.16c21.122-.08 42.172-.4 63.306.07 24.856.56 38.396 14.74 46.719 36.68 8.531 22.48 16.857 45.39 26.125 67.53 4.963-15.72 10.49-31.72 15.318-47.44 10.435-33.97 13.555-63.028 56.452-67.039"></path><path fill="#6E77D1" d="M1382.57 769.313c16.4-1.808 40.68 7.886 48.11 22.469 10.48 20.552 18.46 46.153 26.3 67.929l52.1 145.049c39.53-.96 79.49-.17 119.09-.51 20.88-.17 47.45-1.4 67.66 1.21 40.56 7.07 53.13 60.59 24.49 87.88-20.7 19.73-55.89 14.51-83.36 14.5l-104.46-.1c-23.89-.02-54.27 2.71-76.66-3.78-23.98-6.96-30.94-37.42-38.68-57.55-9.26-24.05-16.94-49.287-27.44-72.815-2.84 8.528-5.44 17.262-8.18 25.828-9.35 29.127-13.23 60.357-48.86 68.107-13.7 3.12-28.09.55-39.86-7.13-36.95-24.25-18.96-61.765-8.63-94.362l23.54-72.871c9.92-30.684 19.26-62.922 30.46-93.189 7.06-19.071 25.05-27.624 44.38-30.665"></path></svg></g></g><defs><clipPath id="SvgjsClipPath1127"><rect width="1000" height="1000" x="0" y="0" rx="500" ry="500"></rect></clipPath></defs></svg>